<?xml version="1.0" encoding="UTF-8" standalone="no"?>
<!-- Created with Inkscape (http://www.inkscape.org/) -->

<svg
   width="107.86523mm"
   height="57.049458mm"
   viewBox="0 0 107.86523 57.049458"
   version="1.1"
   id="svg5"
   xml:space="preserve"
   inkscape:version="1.2.1 (9c6d41e410, 2022-07-14)"
   sodipodi:docname="Vitre.svg"
   xmlns:inkscape="http://www.inkscape.org/namespaces/inkscape"
   xmlns:sodipodi="http://sodipodi.sourceforge.net/DTD/sodipodi-0.dtd"
   xmlns="http://www.w3.org/2000/svg"
   xmlns:svg="http://www.w3.org/2000/svg"><sodipodi:namedview
     id="namedview7"
     pagecolor="#ffffff"
     bordercolor="#000000"
     borderopacity="0.25"
     inkscape:showpageshadow="2"
     inkscape:pageopacity="0.0"
     inkscape:pagecheckerboard="0"
     inkscape:deskcolor="#d1d1d1"
     inkscape:document-units="mm"
     showgrid="false"
     inkscape:zoom="2"
     inkscape:rotation="-90"
     inkscape:cx="244.5"
     inkscape:cy="22.5"
     inkscape:window-width="1920"
     inkscape:window-height="986"
     inkscape:window-x="-11"
     inkscape:window-y="-11"
     inkscape:window-maximized="1"
     inkscape:current-layer="layer1" /><defs
     id="defs2"><marker
       id="DistanceX"
       orient="auto"
       refX="0"
       refY="0"
       style="overflow:visible"><path
         d="M 3,-3 -3,3 M 0,-5 V 5"
         style="stroke:#000000;stroke-width:0.5"
         id="path184" /></marker><pattern
       id="Hatch"
       patternUnits="userSpaceOnUse"
       width="8"
       height="8"
       x="0"
       y="0"><path
         d="M8 4 l-4,4"
         stroke="#000000"
         stroke-width="0.25"
         linecap="square"
         id="path187" /><path
         d="M6 2 l-4,4"
         stroke="#000000"
         stroke-width="0.25"
         linecap="square"
         id="path189" /><path
         d="M4 0 l-4,4"
         stroke="#000000"
         stroke-width="0.25"
         linecap="square"
         id="path191" /></pattern><symbol
       id="*MODEL_SPACE" /><symbol
       id="*PAPER_SPACE" /><marker
       id="DistanceX-3"
       orient="auto"
       refX="0"
       refY="0"
       style="overflow:visible"><path
         d="M 3,-3 -3,3 M 0,-5 V 5"
         style="stroke:#000000;stroke-width:0.5"
         id="path4924" /></marker><pattern
       id="Hatch-2"
       patternUnits="userSpaceOnUse"
       width="8"
       height="8"
       x="0"
       y="0"><path
         d="M8 4 l-4,4"
         stroke="#000000"
         stroke-width="0.25"
         linecap="square"
         id="path4927" /><path
         d="M6 2 l-4,4"
         stroke="#000000"
         stroke-width="0.25"
         linecap="square"
         id="path4929" /><path
         d="M4 0 l-4,4"
         stroke="#000000"
         stroke-width="0.25"
         linecap="square"
         id="path4931" /></pattern><symbol
       id="*MODEL_SPACE-0" /><symbol
       id="*PAPER_SPACE-0" /></defs><g
     inkscape:label="Calque 1"
     inkscape:groupmode="layer"
     id="layer1"
     transform="translate(-90.638703,-13.871072)"><path
       style="fill:#000000;stroke-width:0.0597497"
       d="m 136.96978,48.684395 c -0.058,-1.375229 1.72465,-1.886773 2.40695,-0.690721 0.20697,0.362542 0.24662,0.621091 0.15063,0.979297 -0.3818,1.42499 -2.4953,1.186482 -2.55758,-0.288606 z m -0.79479,-1.98194 c -0.093,-0.953634 0.86971,-1.692418 1.76778,-1.356606 0.9071,0.339187 1.2168,1.852184 0.36672,1.791765 -0.35546,-0.02524 -0.93877,0.236084 -1.22847,0.550422 -0.2365,0.256613 -0.84998,-0.410735 -0.90603,-0.985581 z m -0.34085,-2.465145 c -0.40302,-1.762663 2.16736,-2.758165 3.06967,-1.188877 0.55951,0.973154 -0.0623,2.41987 -0.91632,2.131739 -0.42132,-0.14211 -0.75198,-0.134798 -1.13958,0.02524 l -0.2866,0.118379 -0.22859,-0.216632 c -0.2782,-0.263624 -0.41422,-0.500977 -0.49869,-0.869838 z m 3.07441,2.739516 c 0.0954,-0.322275 0.0675,-0.715219 -0.0744,-1.048677 l -0.11821,-0.278147 0.33842,-0.215728 c 1.37991,-0.879622 2.95071,0.650844 2.12542,2.070851 -0.26512,0.456164 -1.26417,0.96572 -1.42693,0.727793 -0.0207,-0.03045 -0.10477,-0.179431 -0.18642,-0.331566 -0.10544,-0.195954 -0.23305,-0.33638 -0.43825,-0.482221 l -0.28953,-0.205762 z m -2.23101,-5.999052 c -0.57088,-1.515981 1.22865,-2.899717 2.57901,-1.983091 l 0.2481,0.168407 -0.10043,0.421515 c -0.14476,0.607269 -0.0805,1.197824 0.17978,1.65235 0.11732,0.205261 -0.0282,0.443995 -0.40289,0.66029 -0.92947,0.536637 -2.11986,0.09946 -2.50356,-0.919466 z m 3.12003,2.90889 c -0.21611,-0.930156 0.35203,-1.865116 1.00044,-1.646335 0.4565,0.154039 0.82897,0.166539 1.35514,0.04559 0.47371,-0.108894 0.51855,-0.08793 0.79667,0.372659 0.93694,1.551596 -0.97021,3.295923 -2.46097,2.250845 -0.28448,-0.199432 -0.61286,-0.68527 -0.69128,-1.022749 z m -0.19267,-3.132925 c -0.26063,-0.809947 -0.007,-1.623609 0.68301,-2.186899 0.44208,-0.361122 0.49115,-0.357234 0.77061,0.06122 0.4186,0.626807 0.89068,0.826498 1.78326,0.754318 0.60241,-0.04873 0.60316,-0.0482 0.68834,0.461476 0.40967,2.451649 -3.16245,3.279682 -3.92522,0.909865 z m -2.18787,-4.461379 c -0.0552,-0.214669 -0.13576,-0.665017 -0.17814,-1.001037 -0.0424,-0.336 -0.11733,-0.750682 -0.16649,-0.921525 -0.11354,-0.394538 -0.10354,-0.39811 0.57667,-0.209059 1.76205,0.489075 2.54731,1.537364 2.21709,2.959901 l -0.0925,0.398357 -0.0888,-0.224726 c -0.40408,-1.02294 -0.88017,-1.713476 -1.46129,-2.119496 -0.58196,-0.406634 -0.58202,-0.328083 -2.7e-4,0.407344 0.57987,0.733096 1.15555,1.992362 0.96193,2.104147 -0.48598,0.280581 -1.55225,-0.560008 -1.76819,-1.393908 z m 2.32218,2.39557 c 0.35426,-1.178151 1.2184,-2.443709 2.14986,-3.148715 l 0.26796,-0.202823 0.27459,0.268201 c 0.33019,0.32252 0.33117,0.312024 -0.0371,0.398742 -0.771,0.181559 -1.64628,1.025753 -2.28425,2.203123 -0.50157,0.925668 -0.50666,0.932275 -0.37109,0.481476 z m 1.23502,-0.642048 c 0.0102,-0.245503 1.52618,-0.01632 2.52891,0.38223 0.30007,0.119266 0.19288,-0.02797 -0.22162,-0.304379 -0.46964,-0.313224 -1.0751,-0.503679 -1.71484,-0.539438 -0.23672,-0.01329 -0.49139,-0.02812 -0.56593,-0.03311 -0.11277,-0.0078 -0.047,-0.05632 0.39164,-0.29088 0.99832,-0.533787 1.84696,-0.34723 2.68045,0.589209 0.29383,0.330136 0.7628,1.059028 0.70343,1.093309 -0.0152,0.0085 -0.18434,0.02445 -0.37591,0.03491 -0.19159,0.01047 -0.58571,0.06471 -0.87587,0.120511 -1.38849,0.267113 -1.94518,0.103173 -2.41129,-0.710148 -0.0787,-0.137005 -0.1411,-0.291099 -0.13901,-0.342291 z"
       id="path4660" /><path
       style="fill:#000000;stroke-width:0.0621507"
       d="m 102.19228,32.715919 c 0.0359,-1.07023 0.42128,-1.902697 1.09725,-2.370245 0.40003,-0.276666 0.57674,-0.340834 1.1406,-0.414141 0.95039,-0.123554 2.04341,0.317974 2.5114,1.014487 0.21812,0.32464 0.21301,0.404804 -0.0347,0.545231 -0.37805,0.214277 -0.68144,0.589725 -0.82764,1.024186 -0.25525,0.758568 -0.30522,0.695025 0.78631,0.999805 1.19799,0.334506 2.29266,0.556011 3.26222,0.660094 0.97639,0.104822 2.23215,-0.01651 2.73951,-0.26471 0.38632,-0.188986 0.73418,-0.5719 0.8381,-0.922539 0.3333,-1.124633 -0.39544,-2.272728 -1.50388,-2.369272 -0.64607,-0.05624 -0.99752,0.220202 -0.98717,0.776571 0.01,0.528274 0.48762,0.844195 1.08034,0.714351 0.28479,-0.06241 0.29145,-0.06002 0.34636,0.123793 0.0616,0.206851 0.27583,1.013949 0.28524,1.076142 0.01,0.06776 -0.42733,0.180398 -0.90953,0.234288 -0.877,0.09795 -1.62819,-0.102324 -2.26378,-0.603543 -0.45008,-0.354919 -0.67442,-0.678329 -0.87158,-1.256513 -0.66551,-1.951608 0.3881,-3.644601 2.4206,-3.889498 0.61431,-0.07399 0.72081,-0.07044 1.34228,0.04529 1.5592,0.290244 3.04045,1.658847 3.5611,3.290292 0.39815,1.247519 0.24047,2.536666 -0.41187,3.367775 -0.33055,0.421138 -1.07283,0.920049 -1.63774,1.100778 -0.58171,0.186088 -1.98885,0.279831 -2.80801,0.18705 -1.19006,-0.13478 -2.85476,-0.566118 -4.32401,-1.120384 -0.37576,-0.141754 -0.69026,-0.248766 -0.69885,-0.237806 -0.0323,0.04111 0.80177,0.756192 1.19541,1.02485 1.04297,0.711842 1.86765,1.07605 4.92572,2.17535 2.49763,0.897851 3.17313,1.213641 3.68415,1.722282 0.48394,0.48172 0.76702,1.22174 0.68087,1.779979 -0.0614,0.397801 -0.42334,0.86828 -0.77706,1.010061 -0.22649,0.09079 -0.26839,0.13541 -0.28113,0.29941 -0.0217,0.279523 -0.23671,0.671818 -0.4463,0.814319 -0.0999,0.0679 -0.31864,0.138903 -0.48615,0.157752 -1.31357,0.147908 -2.13009,-1.935402 -1.04837,-2.67486 0.30748,-0.210191 0.83918,-0.180787 1.2005,0.0664 0.17644,0.120698 0.13294,-0.003 -0.10225,-0.290019 -0.47087,-0.575352 -1.27756,-0.964431 -3.88633,-1.874452 -1.12133,-0.391148 -2.34437,-0.792578 -2.71786,-0.89205 -1.59956,-0.426019 -3.29968,-1.111489 -4.04641,-1.63146 -1.13667,-0.791511 -1.90774,-1.916088 -2.00208,-2.919969 -0.0167,-0.177076 -0.0279,-0.392639 -0.0249,-0.479074 z m 3.66147,19.807972 c 0.0398,-0.734772 0.30255,-1.224281 0.84767,-1.579342 0.34036,-0.221709 0.45369,-0.262499 0.8736,-0.314479 0.26537,-0.0328 0.48205,-0.06339 0.48153,-0.06799 -6.1e-4,-0.005 -0.25274,-0.148562 -0.56048,-0.320061 -0.66987,-0.37334 -1.26437,-0.863781 -1.51255,-1.247779 -0.12394,-0.191722 -0.20442,-0.416733 -0.25395,-0.710132 -0.0956,-0.565386 0.028,-0.933821 0.40491,-1.20686 0.23136,-0.167629 0.33006,-0.196259 0.92222,-0.267594 0.36471,-0.0439 0.66269,-0.0843 0.66215,-0.0896 -8.3e-4,-0.005 -0.26192,-0.141401 -0.58084,-0.302313 -1.48243,-0.747878 -2.16302,-1.738349 -1.83337,-2.668119 0.17951,-0.506299 0.5875,-0.773768 1.315,-0.86204 l 0.3894,-0.0473 -0.53562,-0.31087 c -1.06355,-0.61728 -1.53973,-1.159719 -1.66505,-1.896759 -0.1455,-0.855585 0.21379,-1.30899 1.16894,-1.475221 0.73859,-0.12854 1.60659,-0.0428 2.99486,0.2958 0.76222,0.185911 3.12354,1.005242 3.17441,1.10145 0.0208,0.03896 0.0823,0.506897 0.1369,1.039711 l 0.0994,0.96871 -0.32359,-0.151191 c -1.5059,-0.703541 -3.51476,-1.196348 -4.4283,-1.086309 -0.44817,0.054 -0.54884,0.106458 -0.52848,0.275521 0.0297,0.24634 0.47057,0.656089 1.17799,1.09477 0.33228,0.20605 0.5719,0.292478 1.14526,0.413089 0.39878,0.0839 1.10311,0.250979 1.5652,0.371299 0.46208,0.12032 0.86098,0.21631 0.88644,0.21332 0.0255,-0.003 0.0229,-0.199825 -0.006,-0.437388 -0.0286,-0.237573 -0.0404,-0.433332 -0.0263,-0.43504 0.0142,-0.002 0.15956,0.0361 0.32313,0.0841 l 0.29738,0.0872 0.0551,0.457648 0.0551,0.457649 0.56768,0.165512 c 0.31223,0.091 0.60576,0.189238 0.65229,0.218238 0.10802,0.06741 0.38541,2.254751 0.2874,2.266551 -0.0346,0.004 -0.32737,-0.0876 -0.65057,-0.203969 l -0.58763,-0.211551 0.0601,0.498416 c 0.0665,0.552361 0.0653,0.553507 -0.40805,0.380321 -0.17476,-0.064 -0.18192,-0.0811 -0.24217,-0.581145 l -0.0621,-0.515257 -0.6491,-0.1821 c -1.90959,-0.535711 -3.71339,-0.706821 -3.92891,-0.37269 -0.23764,0.368439 1.47631,1.484161 2.9591,1.926271 0.35713,0.106478 1.06189,0.344609 1.56615,0.529168 l 0.91681,0.335572 0.14146,1.031819 0.14147,1.031831 -0.28309,-0.128751 c -1.88811,-0.858672 -4.13313,-1.33948 -4.89387,-1.048111 -0.6452,0.247119 0.88386,1.408989 2.99952,2.279231 2.02302,0.83213 2.69816,1.38614 2.78984,2.289229 0.0399,0.392532 -0.0122,0.72138 -0.11616,0.733901 -0.0343,0.004 -0.11357,-0.0827 -0.17607,-0.19302 -0.26197,-0.4622 -0.79023,-0.43727 -1.78005,0.084 -0.9666,0.50903 -1.70833,0.75822 -2.58031,0.86688 l -0.76396,0.0952 0.33083,0.234139 c 0.40944,0.289769 1.16298,0.621769 1.639,0.72214 0.34285,0.0723 0.47794,0.169359 0.41745,0.299988 -0.084,0.181262 -1.22226,0.045 -2.01553,-0.241287 -1.3182,-0.475731 -2.08668,-1.121552 -2.68917,-2.259982 -0.27055,-0.511169 -0.38938,-0.9786 -0.36468,-1.434382 z m 2.66162,0.157399 c 0.0925,0.108612 0.30708,0.243929 0.49114,0.309611 0.2869,0.102368 0.40251,0.106808 0.94328,0.0362 0.61198,-0.08 1.22483,-0.268394 1.64211,-0.504902 l 0.21762,-0.12336 -0.75579,-0.319467 c -1.16619,-0.492961 -1.47361,-0.591683 -1.8393,-0.590633 -0.76544,0.002 -1.15153,0.660892 -0.69906,1.192591 z m 5.71429,-3.63642 c 0.25579,-0.814732 1.05542,-1.043731 1.77554,-0.508491 0.69644,0.51765 0.89524,1.71698 0.37158,2.241691 -0.72341,0.72484 -1.93833,0.116981 -2.14366,-1.07256 -0.0524,-0.303612 -0.0534,-0.501459 -0.003,-0.660641 z"
       id="path9415" /><g
       inkscape:label="0"
       id="g5020"
       transform="matrix(0.26458333,0,0,0.26458333,87.621553,-283.66082)"><path
         style="fill:#000000;stroke:#0000ff;fill-opacity:1;stroke-opacity:1;stroke-width:1.13385828;stroke-dasharray:none"
         d="M 11.9034,1338.86 11.985,1125.03"
         id="path4938" /><path
         style="fill:#000000;stroke:#0000ff;fill-opacity:1;stroke-opacity:1;stroke-width:1.13385828;stroke-dasharray:none"
         d="M 409.36,1339.65 11.9034,1338.86"
         id="path4940" /><path
         d="m 409.50327,1331.2432 c 0.002,0.3143 0.005,0.6285 0.007,0.9428 0.004,0.6022 0.0438,1.5665 0.0339,2.7458 -6.2e-4,0.073 -0.001,0.1474 -0.002,0.2218 -0.0114,0.8395 -0.044,1.803 -0.099,2.8813 -0.0275,0.5392 -0.055,1.0783 -0.0825,1.6174"
         style="fill:#000000;stroke:#0000ff;fill-opacity:1;stroke-opacity:1;stroke-width:1.13385828;stroke-dasharray:none"
         id="path4942" /><path
         d="m 418.58267,1322.1308 c -0.18637,0.1688 -0.37273,0.3376 -0.55909,0.5064 -3.12186,2.8273 -5.44012,5.0384 -6.8139,6.5049 -0.22339,0.2385 -0.423,0.4587 -0.60344,0.6679 -0.22359,0.2592 -0.3963,0.474 -0.54379,0.6742 -0.18639,0.253 -0.37279,0.506 -0.55918,0.759"
         style="fill:#000000;stroke:#0000ff;fill-opacity:1;stroke-opacity:1;stroke-width:1.13385828;stroke-dasharray:none"
         id="path4944" /><path
         style="fill:#000000;stroke:#0000ff;fill-opacity:1;stroke-opacity:1;stroke-width:1.13385828;stroke-dasharray:none"
         d="m 418.583,1186 v 136.13"
         id="path4946" /><path
         style="fill:#000000;stroke:#0000ff;fill-opacity:1;stroke-opacity:1;stroke-width:1.13385828;stroke-dasharray:none"
         d="m 409.414,1176.93 9.169,9.07"
         id="path4948" /><path
         style="fill:#000000;stroke:#0000ff;fill-opacity:1;stroke-opacity:1;stroke-width:1.13385828;stroke-dasharray:none"
         d="m 409.414,1138.39 v 38.54"
         id="path4950" /><path
         style="fill:#000000;stroke:#0000ff;fill-opacity:1;stroke-opacity:1;stroke-width:1.13385828;stroke-dasharray:none"
         d="m 394.174,1125.18 15.24,13.21"
         id="path4952" /><path
         style="fill:#000000;stroke:#0000ff;fill-opacity:1;stroke-opacity:1;stroke-width:1.13385828;stroke-dasharray:none"
         d="M 394.174,1125.18 11.985,1125.03"
         id="path4954" /><path
         style="fill:none;stroke:#ff0000;stroke-width:1.13386;stroke-dasharray:none;stroke-opacity:1"
         d="m 100.142,1133.12 86.93,-0.3785"
         id="path4956"
         sodipodi:nodetypes="cc" /><path
         style="fill:none;stroke:#ff0000;stroke-width:1.13386;stroke-dasharray:none;stroke-opacity:1"
         d="m 100.142,1151.51 c -0.087,1.9999 -0.0227,-10.6567 0,-18.89"
         id="path4960"
         sodipodi:nodetypes="cc" /><path
         style="fill:none;stroke:#ff0000;stroke-width:1.13386;stroke-dasharray:none;stroke-opacity:1"
         d="m 187.072,1151.6428 -86.93,0.099"
         id="path4962"
         sodipodi:nodetypes="cc" /><path
         style="fill:none;stroke:#ff0000;stroke-width:1.13385828;stroke-dasharray:none;stroke-opacity:1"
         d="m 185.54,1132.74 h 80.315"
         id="path4964" /><path
         style="fill:none;stroke:#ff0000;stroke-width:1.13385828;stroke-dasharray:none;stroke-opacity:1"
         d="m 265.855,1132.74 v 18.9"
         id="path4966" /><path
         style="fill:none;stroke:#ff0000;stroke-width:1.13385828;stroke-dasharray:none;stroke-opacity:1"
         d="M 265.855,1151.64 H 185.54"
         id="path4970" /><path
         style="fill:none;stroke:#ff0000;stroke-width:1.13385828;stroke-dasharray:none;stroke-opacity:1"
         d="m 278.593,1132.2 h 80.315"
         id="path4972" /><path
         style="fill:none;stroke:#ff0000;stroke-width:1.13385828;stroke-dasharray:none;stroke-opacity:1"
         d="m 358.908,1132.2 v 18.89"
         id="path4974" /><path
         style="fill:none;stroke:#ff0000;stroke-width:1.13385828;stroke-dasharray:none;stroke-opacity:1"
         d="M 278.593,1151.09 V 1132.2"
         id="path4976" /><path
         style="fill:none;stroke:#ff0000;stroke-width:1.13385828;stroke-dasharray:none;stroke-opacity:1"
         d="M 358.908,1151.09 H 278.593"
         id="path4978" /><path
         style="fill:none;stroke:#ff0000;stroke-width:1.13386;stroke-dasharray:none;stroke-opacity:1"
         d="m 403.055,1311.87 -30.10442,-4.2868"
         id="path4982"
         sodipodi:nodetypes="cc" /><path
         style="fill:none;stroke:#ff0000;stroke-width:1.13386;stroke-dasharray:none;stroke-opacity:1"
         d="M 372.77381,1308.0251 372.818,1134.24"
         id="path4986"
         sodipodi:nodetypes="cc" /><path
         style="fill:none;stroke:#ff0000;stroke-width:1.13385828;stroke-dasharray:none;stroke-opacity:1"
         d="M 379.068,1332.84 H 298.753"
         id="path4988" /><path
         style="fill:none;stroke:#ff0000;stroke-width:1.13385828;stroke-dasharray:none;stroke-opacity:1"
         d="m 298.753,1332.84 v -18.9"
         id="path4990" /><path
         style="fill:none;stroke:#ff0000;stroke-width:1.13385828;stroke-dasharray:none;stroke-opacity:1"
         d="m 379.068,1313.94 v 18.9"
         id="path4992" /><path
         style="fill:none;stroke:#ff0000;stroke-width:1.13385828;stroke-dasharray:none;stroke-opacity:1"
         d="m 298.753,1313.94 h 80.315"
         id="path4994" /><path
         style="fill:none;stroke:#ff0000;stroke-width:1.13385828;stroke-dasharray:none;stroke-opacity:1"
         d="M 294.01,1332.84 H 213.695"
         id="path4996" /><path
         style="fill:none;stroke:#ff0000;stroke-width:1.13385828;stroke-dasharray:none;stroke-opacity:1"
         d="m 294.01,1313.94 v 18.9"
         id="path5000" /><path
         style="fill:none;stroke:#ff0000;stroke-width:1.13385828;stroke-dasharray:none;stroke-opacity:1"
         d="M 213.695,1313.94 H 294.01"
         id="path5002" /><path
         style="fill:none;stroke:#ff0000;stroke-width:1.13385828;stroke-dasharray:none;stroke-opacity:1"
         d="M 217.209,1332.84 H 136.895"
         id="path5004" /><path
         style="fill:none;stroke:#ff0000;stroke-width:1.13385828;stroke-dasharray:none;stroke-opacity:1"
         d="m 136.895,1332.84 v -18.9"
         id="path5006" /><path
         style="fill:none;stroke:#ff0000;stroke-width:1.13385828;stroke-dasharray:none;stroke-opacity:1"
         d="m 136.895,1313.94 h 80.314"
         id="path5010" /><path
         d="m 336.2953,1208.2466 h -75.59055 v 56.6929 h 75.59055 z"
         style="fill:none;stroke:#ff0000;stroke-width:1.13385828;stroke-dasharray:none;stroke-opacity:1"
         id="path5012" /><path
         d="M 403.05451,1149.3537 A 15.11811,15.11811 0 0 0 387.9364,1134.2356"
         style="fill:none;stroke:#ff0000;stroke-width:1.13385828;stroke-dasharray:none;stroke-opacity:1"
         id="path5014" /><path
         style="fill:none;stroke:#ff0000;stroke-width:1.13385828;stroke-dasharray:none;stroke-opacity:1"
         d="m 372.818,1134.24 h 15.118"
         id="path5016" /><path
         style="fill:none;stroke:#ff0000;stroke-width:1.13385828;stroke-dasharray:none;stroke-opacity:1"
         d="m 403.055,1149.35 v 162.52"
         id="path5018" /></g></g></svg>
